<svg xmlns="http://www.w3.org/2000/svg" width="514.1165771484375" height="233.80873107910156" viewBox="-138.0198974609375 -19.295757293701172 514.1165771484375 233.80873107910156"><title>Neo4j Graph Visualization</title><desc>Created using Neo4j (http://www.neo4j.com/)</desc><g class="layer relationships"><g class="relationship" transform="translate(-94.0198976426381 90.27947378936986) rotate(404.2964634396524)"><path class="outline" fill="#A5ABB6" stroke="none" d="M 40 0.5 L 56.7392239118781 0.5 L 56.7392239118781 -0.5 L 40 -0.5 Z M 87.6259426618781 0.5 L 104.3651665737562 0.5 L 104.3651665737562 3.5 L 111.3651665737562 0 L 104.3651665737562 -3.5 L 104.3651665737562 -0.5 L 87.6259426618781 -0.5 Z"/><text text-anchor="middle" pointer-events="none" font-size="8px" fill="#000000" x="72.1825832868781" y="3" font-family="sans-serif">OWNS</text></g><g class="relationship" transform="translate(196.97933867617255 95.17281319372341) rotate(227.2464111814146)"><path class="outline" fill="#A5ABB6" stroke="none" d="M 25 0.5 L 31.32584900404131 0.5 L 31.32584900404131 -0.5 L 25 -0.5 Z M 78.07194275404132 0.5 L 84.39779175808262 0.5 L 84.39779175808262 3.5 L 91.39779175808262 0 L 84.39779175808262 -3.5 L 84.39779175808262 -0.5 L 78.07194275404132 -0.5 Z"/><text text-anchor="middle" pointer-events="none" font-size="8px" fill="#000000" x="54.69889587904131" y="3" transform="rotate(180 54.69889587904131 0)" font-family="sans-serif">CONTAINS</text></g><g class="relationship" transform="translate(3.58153964177373 185.51296629439827) rotate(359.1749821572)"><path class="outline" fill="#A5ABB6" stroke="none" d="M 25 0.5 L 32.22475262205072 0.5 L 32.22475262205072 -0.5 L 25 -0.5 Z M 78.97084637205072 0.5 L 86.19559899410145 0.5 L 86.19559899410145 3.5 L 93.19559899410145 0 L 86.19559899410145 -3.5 L 86.19559899410145 -0.5 L 78.97084637205072 -0.5 Z"/><text text-anchor="middle" pointer-events="none" font-size="8px" fill="#000000" x="55.59779949705072" y="3" font-family="sans-serif">CONTAINS</text></g><g class="relationship" transform="translate(332.09664059826713 91.30870854931075) rotate(538.3618932779859)"><path class="outline" fill="#A5ABB6" stroke="none" d="M 40 0.5 L 56.1429124991932 0.5 L 56.1429124991932 -0.5 L 40 -0.5 Z M 87.0296312491932 0.5 L 103.1725437483864 0.5 L 103.1725437483864 3.5 L 110.1725437483864 0 L 103.1725437483864 -3.5 L 103.1725437483864 -0.5 L 87.0296312491932 -0.5 Z"/><text text-anchor="middle" pointer-events="none" font-size="8px" fill="#000000" x="71.5862718741932" y="3" transform="rotate(180 71.5862718741932 0)" font-family="sans-serif">OWNS</text></g><g class="relationship" transform="translate(121.76488555714556 183.811093848532) rotate(310.3164358583465)"><path class="outline" fill="#A5ABB6" stroke="none" d="M 25 0.5 L 38.95094876798025 0.5 L 38.95094876798025 -0.5 L 25 -0.5 Z M 70.29860501798025 0.5 L 84.2495537859605 0.5 L 84.2495537859605 3.5 L 91.2495537859605 0 L 84.2495537859605 -3.5 L 84.2495537859605 -0.5 L 70.29860501798025 -0.5 Z"/><text text-anchor="middle" pointer-events="none" font-size="8px" fill="#000000" x="54.62477689298025" y="3" font-family="sans-serif">CALLS</text></g><g class="relationship" transform="translate(-94.0198976426381 90.27947378936986) rotate(320.59493708234004)"><path class="outline" fill="#A5ABB6" stroke="none" d="M 40 0.5 L 50.62570415243509 0.5 L 50.62570415243509 -0.5 L 40 -0.5 Z M 81.51242290243509 0.5 L 92.13812705487018 0.5 L 92.13812705487018 3.5 L 99.13812705487018 0 L 92.13812705487018 -3.5 L 92.13812705487018 -0.5 L 81.51242290243509 -0.5 Z"/><text text-anchor="middle" pointer-events="none" font-size="8px" fill="#000000" x="66.06906352743509" y="3" font-family="sans-serif">OWNS</text></g><g class="relationship" transform="translate(117.96307722820808 9.704243807399362) rotate(539.1250647902225)"><path class="outline" fill="#A5ABB6" stroke="none" d="M 25 0.5 L 38.865058404830165 0.5 L 38.865058404830165 -0.5 L 25 -0.5 Z M 70.21271465483017 0.5 L 84.07777305966033 0.5 L 84.07777305966033 3.5 L 91.07777305966033 0 L 84.07777305966033 -3.5 L 84.07777305966033 -0.5 L 70.21271465483017 -0.5 Z"/><text text-anchor="middle" pointer-events="none" font-size="8px" fill="#000000" x="54.538886529830165" y="3" transform="rotate(180 54.538886529830165 0)" font-family="sans-serif">CALLS</text></g></g><g class="layer nodes"><g class="node" transform="translate(196.97933867617255,95.17281319372341)"><circle class="outline" cx="0" cy="0" r="25" fill="#6DCE9E" stroke="#60B58B" stroke-width="2px"/><text text-anchor="middle" pointer-events="none" y="5" font-size="10px" fill="#FFFFFF" font-family="sans-serif"> source=</text></g><g class="node" transform="translate(3.58153964177373,185.51296629439827)"><circle class="outline" cx="0" cy="0" r="25" fill="#6DCE9E" stroke="#60B58B" stroke-width="2px"/><text text-anchor="middle" pointer-events="none" y="5" font-size="10px" fill="#FFFFFF" font-family="sans-serif"> load_sp…</text></g><g class="node" transform="translate(117.96307722820808,9.704243807399362)"><circle class="outline" cx="0" cy="0" r="25" fill="#FF756E" stroke="#E06760" stroke-width="2px"/><text text-anchor="middle" pointer-events="none" y="5" font-size="10px" fill="#FFFFFF" font-family="sans-serif"> lib/bundl…</text></g><g class="node" transform="translate(332.09664059826713,91.30870854931075)"><circle class="outline" cx="0" cy="0" r="40" fill="#68BDF6" stroke="#5CA8DB" stroke-width="2px"/><text text-anchor="middle" pointer-events="none" y="5" font-size="10px" fill="#FFFFFF" font-family="sans-serif"> Bundler::StubS…</text></g><g class="node" transform="translate(1.8988378875758496,11.476740569157482)"><circle class="outline" cx="0" cy="0" r="25" fill="#6DCE9E" stroke="#60B58B" stroke-width="2px"/><text text-anchor="middle" pointer-events="none" y="5" font-size="10px" fill="#FFFFFF" font-family="sans-serif"> extensio…</text></g><g class="node" transform="translate(-94.0198976426381,90.27947378936986)"><circle class="outline" cx="0" cy="0" r="40" fill="#68BDF6" stroke="#5CA8DB" stroke-width="2px"/><text text-anchor="middle" pointer-events="none" y="5" font-size="10px" fill="#FFFFFF" font-family="sans-serif"> Bundler::Sourc…</text></g><g class="node" transform="translate(121.76488555714556,183.811093848532)"><circle class="outline" cx="0" cy="0" r="25" fill="#FF756E" stroke="#E06760" stroke-width="2px"/><text text-anchor="middle" pointer-events="none" y="5" font-size="10px" fill="#FFFFFF" font-family="sans-serif"> lib/bundl…</text></g></g></svg>