<svg height="400" width="780" xmlns="http://www.w3.org/2000/svg">
<style>
text{font-family:sans-serif}
</style>
<g class="layer relationships"><g class="relationship"><path fill="#4356C0" stroke="none" d="M 0 1.5 L 3.286298978128322 1.5 L 3.286298978128322 -1.5 L 0 -1.5 Z M 25.286787259378322 1.5 L 28.573086237506644 1.5 L 28.573086237506644 4.5 L 37.573086237506644 0 L 28.573086237506644 -4.5 L 28.573086237506644 -1.5 L 25.286787259378322 -1.5 Z" transform="translate(297.7746521863433 190.50916631490264) rotate(78.09040356214598)"/><text text-anchor="middle" font-size="9px" fill="#000000" x="300.7229385513428" y="207.9881835119003" transform="rotate(78.09040356214598 300.7229385513428 204.4881835119003)">O…</text><rect class="overlay" fill="yellow" x="0" y="-10" height="20" opacity="0" width="37.573086237506644" transform="translate(297.7746521863433 190.50916631490264) rotate(78.09040356214598)"/></g><g class="relationship"><path fill="#4356C0" stroke="none" d="M 0 1.5 L 3.5856067423827156 1.5 L 3.5856067423827156 -1.5 L 0 -1.5 Z M 25.586095023632716 1.5 L 29.17170176601543 1.5 L 29.17170176601543 4.5 L 38.17170176601543 0 L 29.17170176601543 -4.5 L 29.17170176601543 -1.5 L 25.586095023632716 -1.5 Z" transform="translate(306.34931566837804 155.49109961347594) rotate(-50.57250586313568)"/><text text-anchor="middle" font-size="9px" fill="#000000" x="315.6128077457943" y="147.72456684988882" transform="rotate(-50.57250586313568 315.6128077457943 144.22456684988882)">O…</text><rect class="overlay" fill="yellow" x="0" y="-10" height="20" opacity="0" width="38.17170176601543" transform="translate(306.34931566837804 155.49109961347594) rotate(-50.57250586313568)"/></g><g class="relationship"><path fill="#4356C0" stroke="none" d="M 0 1.5 L 0.03644133172522146 1.5 L 0.03644133172522146 -1.5 L 0 -1.5 Z M 22.03692961297522 1.5 L 22.073370944700443 1.5 L 22.073370944700443 4.5 L 31.073370944700443 0 L 22.073370944700443 -4.5 L 22.073370944700443 -1.5 L 22.03692961297522 -1.5 Z" transform="translate(482.0610307174855 199.79884925871625) rotate(-163.41169005043008)"/><text text-anchor="middle" font-size="9px" fill="#000000" x="471.4836827852876" y="200.147954633881" transform="rotate(16.58830994956992 471.4836827852876 196.647954633881)">O…</text><rect class="overlay" fill="yellow" x="0" y="-10" height="20" opacity="0" width="31.073370944700443" transform="translate(482.0610307174855 199.79884925871625) rotate(-163.41169005043008)"/></g><g class="relationship"><path fill="#4356C0" stroke="none" d="M 0 1.5 L 3.143464267545035 1.5 L 3.143464267545035 -1.5 L 0 -1.5 Z M 24.642975986295035 1.5 L 27.78644025384007 1.5 L 27.78644025384007 4.5 L 36.78644025384007 0 L 27.78644025384007 -4.5 L 27.78644025384007 -1.5 L 24.642975986295035 -1.5 Z" transform="translate(420.7147201380707 200.91093368324164) rotate(128.31091428084238)"/><text text-anchor="middle" font-size="9px" fill="#000000" x="412.10191684807637" y="215.3123640931887" transform="rotate(308.3109142808424 412.10191684807637 211.8123640931887)">C…</text><rect class="overlay" fill="yellow" x="0" y="-10" height="20" opacity="0" width="36.78644025384007" transform="translate(420.7147201380707 200.91093368324164) rotate(128.31091428084238)"/></g><g class="relationship"><path fill="#4356C0" stroke="none" d="M 0 1.5 L 2.684110105044333 1.5 L 2.684110105044333 -1.5 L 0 -1.5 Z M 24.183621823794333 1.5 L 26.867731928838666 1.5 L 26.867731928838666 4.5 L 35.867731928838666 0 L 26.867731928838666 -4.5 L 26.867731928838666 -1.5 L 24.183621823794333 -1.5 Z" transform="translate(365.5144672030543 245.8311139456628) rotate(178.962233894363)"/><text text-anchor="middle" font-size="9px" fill="#000000" x="352.08280473755366" y="249.57442067151328" transform="rotate(358.962233894363 352.08280473755366 246.07442067151328)">C…</text><rect class="overlay" fill="yellow" x="0" y="-10" height="20" opacity="0" width="35.867731928838666" transform="translate(365.5144672030543 245.8311139456628) rotate(178.962233894363)"/></g><g class="relationship"><path fill="#4356C0" stroke="none" d="M 0 1.5 L 0.7899495723693875 1.5 L 0.7899495723693875 -1.5 L 0 -1.5 Z M 22.289461291119387 1.5 L 23.079410863488775 1.5 L 23.079410863488775 4.5 L 32.079410863488775 0 L 23.079410863488775 -4.5 L 23.079410863488775 -1.5 L 22.289461291119387 -1.5 Z" transform="translate(394.5624450192768 263.3035345398371) rotate(63.09176270665192)"/><text text-anchor="middle" font-size="9px" fill="#000000" x="399.7848877648458" y="277.0938646230115" transform="rotate(63.09176270665192 399.7848877648458 273.5938646230115)">C…</text><rect class="overlay" fill="yellow" x="0" y="-10" height="20" opacity="0" width="32.079410863488775" transform="translate(394.5624450192768 263.3035345398371) rotate(63.09176270665192)"/></g><g class="relationship"><path fill="#4356C0" stroke="none" d="M 0 1.5 L 3.376300816450886 1.5 L 3.376300816450886 -1.5 L 0 -1.5 Z M 24.875812535200886 1.5 L 28.252113351651772 1.5 L 28.252113351651772 4.5 L 37.25211335165177 0 L 28.252113351651772 -4.5 L 28.252113351651772 -1.5 L 24.875812535200886 -1.5 Z" transform="translate(363.29346764873986 110.7329024306984) rotate(0.5022224600290667)"/><text text-anchor="middle" font-size="9px" fill="#000000" x="377.4189816553758" y="114.35672188384862" transform="rotate(0.5022224600290667 377.4189816553758 110.85672188384862)">C…</text><rect class="overlay" fill="yellow" x="0" y="-10" height="20" opacity="0" width="37.25211335165177" transform="translate(363.29346764873986 110.7329024306984) rotate(0.5022224600290667)"/></g><g class="relationship"><path fill="#4356C0" stroke="none" d="M 0 1.5 L 2.2718767117899077 1.5 L 2.2718767117899077 -1.5 L 0 -1.5 Z M 23.771388430539908 1.5 L 26.043265142329815 1.5 L 26.043265142329815 4.5 L 35.043265142329815 0 L 26.043265142329815 -4.5 L 26.043265142329815 -1.5 L 23.771388430539908 -1.5 Z" transform="translate(423.89342473797615 130.95216989868547) rotate(80.35737916274799)"/><text text-anchor="middle" font-size="9px" fill="#000000" x="426.0745762847555" y="147.28982906024623" transform="rotate(80.35737916274799 426.0745762847555 143.78982906024623)">C…</text><rect class="overlay" fill="yellow" x="0" y="-10" height="20" opacity="0" width="35.043265142329815" transform="translate(423.89342473797615 130.95216989868547) rotate(80.35737916274799)"/></g></g><g class="layer nodes"><g class="node" transform="translate(293.6472907378913,170.9396776278206)"><circle class="outline" cx="0" cy="0" r="20" fill="#F25A29" stroke="#DC4717" stroke-width="2px"/><text text-anchor="middle" font-weight="bold" stroke="#F25A29" stroke-width="0" y="5" font-size="12px" fill="#FFFFFF">Bundler::Source::Git</text></g><g class="node" transform="translate(501.22864758705543,205.50870595931545)"><circle class="outline" cx="0" cy="0" r="20" fill="#F25A29" stroke="#DC4717" stroke-width="2px"/><text text-anchor="middle" font-weight="bold" stroke="#F25A29" stroke-width="0" y="5" font-size="12px" fill="#FFFFFF">Bundler::StubSpecification</text></g><g class="node" transform="translate(433.1132903922133,185.21776779317696)"><circle class="outline" cx="0" cy="0" r="20" fill="#AD62CE" stroke="#9453B1" stroke-width="2px"/><text text-anchor="middle" font-weight="bold" stroke="#AD62CE" stroke-width="0" y="5" font-size="12px" fill="#FFFFFF">source=</text></g><g class="node" transform="translate(385.5111866895752,245.46888504372959)"><circle class="outline" cx="0" cy="0" r="20" fill="#30B6AF" stroke="#46A39E" stroke-width="2px"/><text text-anchor="middle" font-weight="bold" stroke="#30B6AF" stroke-width="0" y="0" font-size="12px" fill="#FFFFFF">lib/bundler/stub_specification</text><text text-anchor="middle" font-weight="bold" stroke="#30B6AF" stroke-width="0" y="10" font-size="12px" fill="#FFFFFF">...</text></g><g class="node" transform="translate(343.2942359724164,110.5575959655019)"><circle class="outline" cx="0" cy="0" r="20" fill="#AD62CE" stroke="#9453B1" stroke-width="2px"/><text text-anchor="middle" font-weight="bold" stroke="#AD62CE" stroke-width="0" y="5" font-size="12px" fill="#FFFFFF">load_spec_files</text></g><g class="node" transform="translate(420.5433815926807,111.23473571153376)"><circle class="outline" cx="0" cy="0" r="20" fill="#30B6AF" stroke="#46A39E" stroke-width="2px"/><text text-anchor="middle" font-weight="bold" stroke="#30B6AF" stroke-width="0" y="5" font-size="12px" fill="#FFFFFF">lib/bundler/source/path.rb</text></g><g class="node" transform="translate(309.65589901659763,246.84295930516691)"><circle class="outline" cx="0" cy="0" r="20" fill="#AD62CE" stroke="#9453B1" stroke-width="2px"/><text text-anchor="middle" font-weight="bold" stroke="#AD62CE" stroke-width="0" y="5" font-size="12px" fill="#FFFFFF">extension_dir_name</text></g><g class="node" transform="translate(418.1316550884822,309.74443647554176)"><circle class="outline" cx="0" cy="0" r="20" fill="#DFE1E3" stroke="#D4D6D7" stroke-width="2px"/><text text-anchor="middle" font-weight="bold" stroke="#DFE1E3" stroke-width="0" y="5" font-size="12px" fill="#000000">7</text></g></g></svg>