<svg xmlns="http://www.w3.org/2000/svg" width="726.1297607421875" height="324.9881286621094" viewBox="-158.8082275390625 -86.59300994873047 726.1297607421875 324.9881286621094"><title>Neo4j Graph Visualization</title><desc>Created using Neo4j (http://www.neo4j.com/)</desc><g class="layer relationships"><g class="relationship" transform="translate(-114.80822440874125 68.25074474177048) rotate(318.23115830482743)"><path class="outline" fill="#A5ABB6" stroke="none" d="M 40 0.5 L 83.0159268206176 0.5 L 83.0159268206176 -0.5 L 40 -0.5 Z M 113.9026455706176 0.5 L 156.9185723912352 0.5 L 156.9185723912352 3.5 L 163.9185723912352 0 L 156.9185723912352 -3.5 L 156.9185723912352 -0.5 L 113.9026455706176 -0.5 Z"/><text text-anchor="middle" pointer-events="none" font-size="8px" fill="#000000" x="98.4592861956176" y="3" font-family="sans-serif">OWNS</text></g><g class="relationship" transform="translate(246.79288672146237 69.95929857823252) rotate(446.48990837858094)"><path class="outline" fill="#6DCE9E" stroke="none" d="M 25 0.5 L 46.0881833443602 0.5 L 46.0881833443602 -0.5 L 25 -0.5 Z M 92.8342770943602 0.5 L 113.9224604387204 0.5 L 113.9224604387204 3.5 L 120.9224604387204 0 L 113.9224604387204 -3.5 L 113.9224604387204 -0.5 L 92.8342770943602 -0.5 Z"/><text text-anchor="middle" pointer-events="none" font-size="8px" fill="#000000" x="69.4612302193602" y="3" font-family="sans-serif">CONTAINS</text></g><g class="relationship" transform="translate(26.094493758245108 -57.59301158923381) rotate(358.1886584502122)"><path class="outline" fill="#6DCE9E" stroke="none" d="M 25 0.5 L 86.45120168540551 0.5 L 86.45120168540551 -0.5 L 25 -0.5 Z M 133.19729543540552 0.5 L 194.64849712081102 0.5 L 194.64849712081102 3.5 L 201.64849712081102 0 L 194.64849712081102 -3.5 L 194.64849712081102 -0.5 L 133.19729543540552 -0.5 Z"/><text text-anchor="middle" pointer-events="none" font-size="8px" fill="#000000" x="109.82424856040551" y="3" font-family="sans-serif">CONTAINS</text></g><g class="relationship" transform="translate(77.10840532012577 69.83056436432167) rotate(360.04346847549033)"><path class="outline" fill="#A5ABB6" stroke="none" d="M 40 0.5 L 73.3989057423022 0.5 L 73.3989057423022 -0.5 L 40 -0.5 Z M 104.2856244923022 0.5 L 137.6845302346044 0.5 L 137.6845302346044 3.5 L 144.6845302346044 0 L 137.6845302346044 -3.5 L 137.6845302346044 -0.5 L 104.2856244923022 -0.5 Z"/><text text-anchor="middle" pointer-events="none" font-size="8px" fill="#000000" x="88.8422651173022" y="3" font-family="sans-serif">OWNS</text></g><g class="relationship" transform="translate(237.63723501543768 -64.28292600501112) rotate(446.09832829782516)"><path class="outline" fill="#FF756E" stroke="none" d="M 9.012210650134381,5.003005016747878 L 10.306305875646984,0.17337588530253667 A 202.9465226068114 202.9465226068114 0 0 0 38.85752615824009,5.6674728191862584 L 38.2668482644427,10.632460193367478 A 207.9465226068114 207.9465226068114 0 0 1 9.012210650134381,5.003005016747878 Z M 69.93707720533985,11.967218032618433 L 69.76625573516903,6.970136882053765 A 202.9465226068114 202.9465226068114 0 0 0 98.67850987828382,3.8978671823036573 L 98.1486297154572,0.9450334563646514 L 109.94713367574903,4.415668023555208 L 100.09152364582148,11.77209045147434 L 99.56164348299487,8.819256725535332 A 207.9465226068114 207.9465226068114 0 0 1 69.93707720533985,11.967218032618433"/><text text-anchor="middle" pointer-events="none" font-size="8px" fill="#000000" x="54.18176301758225" y="12.406392116053212" font-family="sans-serif">CALLS</text></g><g class="relationship" transform="translate(-114.80822440874125 68.25074474177048) rotate(406.53822461133393)"><path class="outline" fill="#A5ABB6" stroke="none" d="M 40 0.5 L 76.86717538112501 0.5 L 76.86717538112501 -0.5 L 40 -0.5 Z M 107.75389413112501 0.5 L 144.62106951225002 0.5 L 144.62106951225002 3.5 L 151.62106951225002 0 L 144.62106951225002 -3.5 L 144.62106951225002 -0.5 L 107.75389413112501 -0.5 Z"/><text text-anchor="middle" pointer-events="none" font-size="8px" fill="#000000" x="92.31053475612501" y="3" font-family="sans-serif">OWNS</text></g><g class="relationship" transform="translate(254.80852822609205 200.63615245296265) rotate(180.9669663090279)"><path class="outline" fill="#FF756E" stroke="none" d="M 9.012210650134381,-5.003005016747878 L 10.306305875646984,-0.17337588530253667 A 430.2766459447066 430.2766459447066 0 0 1 95.509644471634,-14.038694214825682 L 95.20564874837206,-19.02944431879189 A 435.2766459447066 435.2766459447066 0 0 0 9.012210650134381,-5.003005016747878 Z M 126.71794469642164,-19.805426450450966 L 126.65996032907182,-14.805762680441717 A 430.2766459447066 430.2766459447066 0 0 1 212.44247663561939,-5.150926773067681 L 211.8095881371464,-2.2184445227376663 L 223.72231863555695,-5.27407082060836 L 214.13017929821407,-12.97087944061439 L 213.49729079974108,-10.038397190284375 A 435.2766459447066 435.2766459447066 0 0 0 126.71794469642164,-19.805426450450966"/><text text-anchor="middle" pointer-events="none" font-size="8px" fill="#000000" x="111.01631323423936" y="-14.203543614248133" transform="rotate(180 111.01631323423936 -17.203543614248133)" font-family="sans-serif">CALLS</text></g><g class="relationship" transform="translate(237.63723501543768 -64.28292600501112) rotate(446.09832829782516)"><path class="outline" fill="#A5ABB6" stroke="none" d="M 9.529848740339423,-3.0711533641697417 L 9.788667785441943,-2.105227537880673 A 208.85174528059096 208.85174528059096 0 0 1 11.652743424802352,-2.595497137049108 L 11.4028497331215,-3.563770416065978 A 209.85174528059096 209.85174528059096 0 0 0 9.529848740339423,-3.0711533641697417 Z M 101.31220420893271,-6.849591670713892 L 101.1336556479385,-5.865660569789185 A 208.85174528059096 208.85174528059096 0 0 1 103.02854551327741,-5.512765872518762 L 102.46568114658983,-2.566041639626685 L 109.99804611780685,-4.690536389063104 L 103.7790313355275,-9.441731516374865 L 103.21616696883993,-6.495007283482788 A 209.85174528059096 209.85174528059096 0 0 0 101.31220420893271,-6.849591670713892"/><text text-anchor="middle" pointer-events="none" font-size="8px" fill="#000000" x="56.19762640276621" y="-6.582012431947959" font-family="sans-serif">EFFERENT_COUPLI…</text></g><g class="relationship" transform="translate(254.80852822609205 200.63615245296265) rotate(180.9669663090279)"><path class="outline" fill="#A5ABB6" stroke="none" d="M 9.529848740339423,3.0711533641697417 L 9.788667785441943,2.105227537880673 A 434.39408770296217 434.39408770296217 0 0 0 66.02223834156791,13.256587143663523 L 65.89287218762578,14.248184036667055 A 435.39408770296217 435.39408770296217 0 0 1 9.529848740339423,3.0711533641697417 Z M 160.25166220499202,16.24247030988397 L 160.16430793786645,15.246293000357753 A 434.39408770296217 434.39408770296217 0 0 0 216.8188231468868,6.4808389345859965 L 216.16549455613028,3.5528427336833954 L 223.75970238078565,5.444404922971163 L 217.6899279345622,10.384833869122799 L 217.03659934380568,7.456837668220198 A 435.39408770296217 435.39408770296217 0 0 1 160.25166220499202,16.24247030988397"/><text text-anchor="middle" pointer-events="none" font-size="8px" fill="#000000" x="113.02863538614983" y="20.309747346130223" transform="rotate(180 113.02863538614983 17.309747346130223)" font-family="sans-serif">EFFERENT_COUPLING</text></g><g class="relationship" transform="translate(538.3215415156363 59.220196427142355) rotate(513.4900333821207)"><path class="outline" fill="#A5ABB6" stroke="none" d="M 25 0.5 L 148.9652507075282 0.5 L 148.9652507075282 -0.5 L 25 -0.5 Z M 175.8597819575282 0.5 L 299.8250326650564 0.5 L 299.8250326650564 3.5 L 306.8250326650564 0 L 299.8250326650564 -3.5 L 299.8250326650564 -0.5 L 175.8597819575282 -0.5 Z"/><text text-anchor="middle" pointer-events="none" font-size="8px" fill="#000000" x="162.4125163325282" y="3" transform="rotate(180 162.4125163325282 0)" font-family="sans-serif">STEP</text></g><g class="relationship selected" transform="translate(538.3215415156363 59.220196427142355) rotate(202.32992524433126)"><path class="outline" fill="#A5ABB6" stroke="none" d="M 25 0.5 L 153.08278807738216 0.5 L 153.08278807738216 -0.5 L 25 -0.5 Z M 179.97731932738216 0.5 L 308.0601074047643 0.5 L 308.0601074047643 3.5 L 315.0601074047643 0 L 308.0601074047643 -3.5 L 308.0601074047643 -0.5 L 179.97731932738216 -0.5 Z"/><text text-anchor="middle" pointer-events="none" font-size="8px" fill="#000000" x="166.53005370238216" y="3" transform="rotate(180 166.53005370238216 0)" font-family="sans-serif">STEP</text></g></g><g class="layer nodes"><g class="node" transform="translate(246.79288672146237,69.95929857823252)"><circle class="outline" cx="0" cy="0" r="25" fill="#6DCE9E" stroke="#60B58B" stroke-width="2px"/><text text-anchor="middle" pointer-events="none" y="5" font-size="10px" fill="#FFFFFF" font-family="sans-serif"> source=</text></g><g class="node" transform="translate(26.094493758245108,-57.59301158923381)"><circle class="outline" cx="0" cy="0" r="25" fill="#6DCE9E" stroke="#60B58B" stroke-width="2px"/><text text-anchor="middle" pointer-events="none" y="5" font-size="10px" fill="#FFFFFF" font-family="sans-serif"> load_sp…</text></g><g class="node" transform="translate(254.80852822609205,200.63615245296265)"><circle class="outline" cx="0" cy="0" r="10" fill="#FFD86E" stroke="#EDBA39" stroke-width="2px"/><text text-anchor="middle" pointer-events="none" y="5" font-size="10px" fill="#604A0E" font-family="sans-serif"> li…</text></g><g class="node" transform="translate(77.10840532012577,69.83056436432167)"><circle class="outline" cx="0" cy="0" r="40" fill="#68BDF6" stroke="#5CA8DB" stroke-width="2px"/><text text-anchor="middle" pointer-events="none" y="5" font-size="10px" fill="#FFFFFF" font-family="sans-serif"> Bundler::StubS…</text></g><g class="node" transform="translate(6.684197648952079,196.4482235711389)"><circle class="outline" cx="0" cy="0" r="25" fill="#6DCE9E" stroke="#60B58B" stroke-width="2px"/><text text-anchor="middle" pointer-events="none" y="5" font-size="10px" fill="#FFFFFF" font-family="sans-serif"> extensio…</text></g><g class="node" transform="translate(-114.80822440874125,68.25074474177048)"><circle class="outline" cx="0" cy="0" r="40" fill="#68BDF6" stroke="#5CA8DB" stroke-width="2px"/><text text-anchor="middle" pointer-events="none" y="5" font-size="10px" fill="#FFFFFF" font-family="sans-serif"> Bundler::Sourc…</text></g><g class="node" transform="translate(538.3215415156363,59.220196427142355)"><circle class="outline" cx="0" cy="0" r="25" fill="#DE9BF9" stroke="#BF85D6" stroke-width="2px"/><text text-anchor="middle" pointer-events="none" y="5" font-size="10px" fill="#FFFFFF" font-family="sans-serif"> 27607</text></g><g class="node" transform="translate(237.63723501543768,-64.28292600501112)"><circle class="outline" cx="0" cy="0" r="10" fill="#FFD86E" stroke="#EDBA39" stroke-width="2px"/><text text-anchor="middle" pointer-events="none" y="5" font-size="10px" fill="#604A0E" font-family="sans-serif"> li…</text></g></g></svg>