<svg xmlns="http://www.w3.org/2000/svg" width="453.34033203125" height="257.44671630859375" viewBox="-183.78929138183594 -28.38743782043457 453.34033203125 257.44671630859375"><title>Neo4j Graph Visualization</title><desc>Created using Neo4j (http://www.neo4j.com/)</desc><g class="layer relationships"><g class="relationship" transform="translate(225.55106080197606 15.612561806580118) rotate(516.6057119897342)"><path class="outline" fill="#A5ABB6" stroke="none" d="M 40 0.5 L 152.94727502307174 0.5 L 152.94727502307174 -0.5 L 40 -0.5 Z M 183.83399377307174 0.5 L 296.7812687961435 0.5 L 296.7812687961435 3.5 L 303.7812687961435 0 L 296.7812687961435 -3.5 L 296.7812687961435 -0.5 L 183.83399377307174 -0.5 Z"/><text text-anchor="middle" pointer-events="none" font-size="8px" fill="#000000" x="168.39063439807174" y="3" transform="rotate(180 168.39063439807174 0)" font-family="sans-serif">OWNS</text></g><g class="relationship" transform="translate(225.55106080197606 15.612561806580118) rotate(458.19789163498626)"><path class="outline" fill="#A5ABB6" stroke="none" d="M 40 0.5 L 66.65354564715639 0.5 L 66.65354564715639 -0.5 L 40 -0.5 Z M 97.54026439715639 0.5 L 124.19381004431278 0.5 L 124.19381004431278 3.5 L 131.19381004431278 0 L 124.19381004431278 -3.5 L 124.19381004431278 -0.5 L 97.54026439715639 -0.5 Z"/><text text-anchor="middle" pointer-events="none" font-size="8px" fill="#000000" x="82.09690502215639" y="3" transform="rotate(180 82.09690502215639 0)" font-family="sans-serif">OWNS</text></g><g class="relationship" transform="translate(225.55106080197606 15.612561806580118) rotate(537.6984353184943)"><path class="outline" fill="#A5ABB6" stroke="none" d="M 40 0.5 L 87.30132892358405 0.5 L 87.30132892358405 -0.5 L 40 -0.5 Z M 118.18804767358405 0.5 L 165.4893765971681 0.5 L 165.4893765971681 3.5 L 172.4893765971681 0 L 165.4893765971681 -3.5 L 165.4893765971681 -0.5 L 118.18804767358405 -0.5 Z"/><text text-anchor="middle" pointer-events="none" font-size="8px" fill="#000000" x="102.74468829858405" y="3" transform="rotate(180 102.74468829858405 0)" font-family="sans-serif">OWNS</text></g><g class="relationship" transform="translate(203.27899308281118 170.21030207360926) rotate(525.2346963126683)"><path class="outline" fill="#6DCE9E" stroke="none" d="M 25 0.5 L 62.21777104401558 0.5 L 62.21777104401558 -0.5 L 25 -0.5 Z M 108.96386479401558 0.5 L 146.18163583803116 0.5 L 146.18163583803116 3.5 L 153.18163583803116 0 L 146.18163583803116 -3.5 L 146.18163583803116 -0.5 L 108.96386479401558 -0.5 Z"/><text text-anchor="middle" pointer-events="none" font-size="8px" fill="#000000" x="85.59081791901558" y="3" transform="rotate(180 85.59081791901558 0)" font-family="sans-serif">CONTAINS</text></g><g class="relationship" transform="translate(-169.78928699968634 44.71630343346206) rotate(353.89669423708665)"><path class="outline" fill="#A5ABB6" stroke="none" d="M 9.529848740339423,3.0711533641697417 L 9.788667785441943,2.105227537880673 A 337.92284115886287 337.92284115886287 0 0 0 41.61653175499334,9.008717261297477 L 41.45189948892121,9.995072276982967 A 338.92284115886287 338.92284115886287 0 0 1 9.529848740339423,3.0711533641697417 Z M 135.7102774095009,12.430348043161018 L 135.59679806291723,11.43680768771543 A 337.92284115886287 337.92284115886287 0 0 0 167.73868123546384,6.186051423333402 L 167.11289506953418,3.252045343835431 L 174.68899311528074,5.214884716080521 L 168.57306279003674,10.098059529330698 L 167.94727662410708,7.164053449832726 A 338.92284115886287 338.92284115886287 0 0 1 135.7102774095009,12.430348043161018"/><text text-anchor="middle" pointer-events="none" font-size="8px" fill="#000000" x="88.50890048849406" y="17.006775693461748" font-family="sans-serif">EFFERENT_COUPLING</text></g><g class="relationship" transform="translate(-169.78928699968634 44.71630343346206) rotate(353.89669423708665)"><path class="outline" fill="#FF756E" stroke="none" d="M 9.012210650134381,-5.003005016747878 L 10.306305875646984,-0.17337588530253667 A 333.2841639836938 333.2841639836938 0 0 1 71.03644265967203,-10.550492478189483 L 70.65343387850362,-15.535801322538816 A 338.2841639836938 338.2841639836938 0 0 0 9.012210650134381,-5.003005016747878 Z M 102.20881042620995,-16.482702072732252 L 102.12541581184097,-11.483397587276897 A 333.2841639836938 333.2841639836938 0 0 1 163.36850563654278,-4.766403370198342 L 162.767199742866,-1.827282545490795 L 174.64637023853444,-5.010882447306449 L 164.97198801968085,-12.604058902751802 L 164.37068212600408,-9.664938078044255 A 338.2841639836938 338.2841639836938 0 0 0 102.20881042620995,-16.482702072732252"/><text text-anchor="middle" pointer-events="none" font-size="8px" fill="#000000" x="86.49505543843506" y="-10.878681080049546" font-family="sans-serif">CALLS</text></g><g class="relationship" transform="translate(-76.20248537035297 146.1572671133295) rotate(227.3061705697686)"><path class="outline" fill="#6DCE9E" stroke="none" d="M 25 0.5 L 49.635573150885875 0.5 L 49.635573150885875 -0.5 L 25 -0.5 Z M 96.38166690088588 0.5 L 121.01724005177175 0.5 L 121.01724005177175 3.5 L 128.01724005177175 0 L 121.01724005177175 -3.5 L 121.01724005177175 -0.5 L 96.38166690088588 -0.5 Z"/><text text-anchor="middle" pointer-events="none" font-size="8px" fill="#000000" x="73.00862002588588" y="3" transform="rotate(180 73.00862002588588 0)" font-family="sans-serif">CONTAINS</text></g><g class="relationship" transform="translate(45.485957491475865 211.79881242980503) rotate(208.34344436542744)"><path class="outline" fill="#A5ABB6" stroke="none" d="M 9.529848740339423,-3.0711533641697417 L 9.788667785441943,-2.105227537880673 A 216.37439711505903 216.37439711505903 0 0 1 11.535671491052256,-2.5655274620905004 L 11.284926431268254,-3.5335806192021835 A 217.37439711505903 217.37439711505903 0 0 0 9.529848740339423,-3.0711533641697417 Z M 105.15341521097847,-6.884310075964606 L 104.9723316376506,-5.9008423645115045 A 216.37439711505903 216.37439711505903 0 0 1 106.74770884129443,-5.566277344783531 L 106.17984277087224,-2.620512906464801 L 113.71580354244183,-4.732217253518222 L 107.50486360185734,-9.493963262541838 L 106.93699753143515,-6.548198824223109 A 217.37439711505903 217.37439711505903 0 0 0 105.15341521097847,-6.884310075964606"/><text text-anchor="middle" pointer-events="none" font-size="8px" fill="#000000" x="58.05386187493585" y="-6.839967087960218" transform="rotate(180 58.05386187493585 -9.839967087960218)" font-family="sans-serif">EFFERENT_COUPLING</text></g><g class="relationship" transform="translate(45.485957491475865 211.79881242980503) rotate(208.34344436542744)"><path class="outline" fill="#FF756E" stroke="none" d="M 9.012210650134381,5.003005016747878 L 10.306305875646984,0.17337588530253667 A 210.57395552821325 210.57395552821325 0 0 0 40.70155854351733,5.964241460055035 L 40.12918725085353,10.931372533756871 A 215.57395552821325 215.57395552821325 0 0 1 9.012210650134381,5.003005016747878 Z M 71.78920678568524,12.235402031983398 L 71.62725886392315,7.238025433143065 A 210.57395552821325 210.57395552821325 0 0 0 102.3957819384051,3.9664055494171144 L 101.86026092572531,1.0145896261288039 L 113.66537450102872,4.462675105664844 L 103.82383797221785,11.837914678185943 L 103.28831695953807,8.886098754897633 A 215.57395552821325 215.57395552821325 0 0 1 71.78920678568524,12.235402031983398"/><text text-anchor="middle" pointer-events="none" font-size="8px" fill="#000000" x="56.03808900863775" y="12.667999663494214" transform="rotate(180 56.03808900863775 9.667999663494214)" font-family="sans-serif">CALLS</text></g></g><g class="layer nodes"><g class="node" transform="translate(225.55106080197606,15.612561806580118)"><circle class="outline" cx="0" cy="0" r="40" fill="#68BDF6" stroke="#5CA8DB" stroke-width="2px"/><text text-anchor="middle" pointer-events="none" y="5" font-size="10px" fill="#FFFFFF" font-family="sans-serif"> Bundler::Plugin</text></g><g class="node" transform="translate(203.27899308281118,170.21030207360926)"><circle class="outline" cx="0" cy="0" r="25" fill="#6DCE9E" stroke="#60B58B" stroke-width="2px"/><text text-anchor="middle" pointer-events="none" y="5" font-size="10px" fill="#FFFFFF" font-family="sans-serif"> hook</text></g><g class="node" transform="translate(-169.78928699968634,44.71630343346206)"><circle class="outline" cx="0" cy="0" r="10" fill="#FFD86E" stroke="#EDBA39" stroke-width="2px"/><text text-anchor="middle" pointer-events="none" y="5" font-size="10px" fill="#604A0E" font-family="sans-serif"> li…</text></g><g class="node" transform="translate(28.22099912406903,23.543553354393772)"><circle class="outline" cx="0" cy="0" r="25" fill="#6DCE9E" stroke="#60B58B" stroke-width="2px"/><text text-anchor="middle" pointer-events="none" y="5" font-size="10px" fill="#FFFFFF" font-family="sans-serif"> add_to_l…</text></g><g class="node" transform="translate(-76.20248537035297,146.1572671133295)"><circle class="outline" cx="0" cy="0" r="25" fill="#6DCE9E" stroke="#60B58B" stroke-width="2px"/><text text-anchor="middle" pointer-events="none" y="5" font-size="10px" fill="#FFFFFF" font-family="sans-serif"> load_plu…</text></g><g class="node selected" transform="translate(45.485957491475865,211.79881242980503)"><circle class="outline" cx="0" cy="0" r="10" fill="#FFD86E" stroke="#EDBA39" stroke-width="2px"/><text text-anchor="middle" pointer-events="none" y="5" font-size="10px" fill="#604A0E" font-family="sans-serif"> li…</text></g></g></svg>